<?xml version="1.0" encoding="utf-8"?>
<!-- Generator: Adobe Illustrator 25.0.1, SVG Export Plug-In . SVG Version: 6.00 Build 0)  -->
<svg version="1.0" id="katman_1" xmlns="http://www.w3.org/2000/svg" xmlns:xlink="http://www.w3.org/1999/xlink" x="0px" y="0px"
	 viewBox="0 0 2926.7 1959" style="enable-background:new 0 0 2926.7 1959;" xml:space="preserve"  fill="#FFF" >
<style type="text/css">
	.st0{fill:#FFAC00;}
</style>
<path class="st0" d="M716.2,960.3c-28.1-29-182.5-187.6-210.7-210.7c-10.2-7.7-23-13.6-39.2-13.6s-29,6-39.2,13.6
	c-29,23-182.5,181.7-211.5,210.7c-1.7,2.6,0,6.8,3.4,6.8h66.5c6.8,0,9.4-0.9,13.6-6c4.3-5.1,26.4-28.1,26.4-28.1
	c28.1-29.9,95.5-96.4,120.3-116.8c9.4-7.7,19.6-7.7,19.6-7.7s11.1,0,19.6,7.7c25.6,21.3,93.8,87,121.1,116.8
	c0,0,22.2,23.9,26.4,28.1c4.3,5.1,6.8,6,13.6,6h66.5C716.2,967.1,718.8,962.9,716.2,960.3 M215.6,998.7
	c28.1,29,182.5,187.6,210.7,210.7c10.2,7.7,23,13.6,39.2,13.6s29-6,39.2-13.6c29-23,182.5-181.7,210.7-210.7c2.6-2.6,0-6.8-3.4-6.8
	h-66.5c-6.8,0-9.4,0.9-13.6,6c-4.3,5.1-26.4,28.1-26.4,28.1c-28.1,29.9-95.5,96.4-120.3,116.8c-9.4,7.7-19.6,7.7-19.6,7.7
	s-11.1,0-19.6-7.7c-24.7-20.5-93-87-120.3-116.8c0,0-22.2-23.9-26.4-28.1c-4.3-5.1-6.8-6-13.6-6H219
	C215.6,991,213.8,995.3,215.6,998.7 M447.5,1032c-12.8-11.9-35-33.3-43.5-42.6c-3.4-4.3-3.4-9.4-3.4-9.4s0-5.1,3.4-9.4
	c8.5-9.4,30.7-31.6,43.5-42.6c5.1-5.1,6.8-7.7,6.8-13.6v-65.7c0-2.6-3.4-4.3-5.1-1.7c-28.1,26.4-91.3,88.7-112.6,112.6
	c-10.2,11.1-9.4,21.3-9.4,21.3s-0.9,11.1,9.4,21.3c21.3,23.9,84.4,87,112.6,112.6c2.6,2.6,5.1,0.9,5.1-2.6v-65.7
	C453.5,1039.6,452.7,1037.1,447.5,1032 M484.2,1032c12.8-11.9,35-33.3,43.5-42.6c3.4-4.3,3.4-9.4,3.4-9.4s0-5.1-3.4-9.4
	c-8.5-9.4-30.7-31.6-43.5-42.6c-5.1-5.1-6.8-7.7-6.8-13.6v-65.7c0-3.4,2.6-4.3,5.1-2.6c28.1,26.4,91.3,88.7,112.6,112.6
	c10.2,11.1,9.4,21.3,9.4,21.3s0.9,11.1-9.4,21.3c-21.3,23.9-84.4,87-112.6,112.6c-2.6,2.6-5.1,0.9-5.1-2.6v-65.7
	C478.2,1039.6,479.1,1037.1,484.2,1032"/>
<path d="M1086.4,1006.4c-1.7-1.7,0-3.4,1.7-3.4h0.9c15.4-0.9,61.4-17.9,61.4-67.4c0-25.6-6.8-43.5-19.6-55.4
	c-13.6-13.6-35-20.5-66.5-20.5H905.5v243.1h48.6V917.7c0-12.8,6.8-17.1,20.5-17.9h95.5c22.2,0,35,15.4,35,34.1
	c0,17.9-14.5,34.1-35,34.1h-71.6c-8.5,0-17.9,6-17.9,19.6v23h29.9c12.8,0,23,5.1,32.4,15.4c16.2,20.5,34.1,43.5,46.9,59.7
	c5.1,6.8,10.2,12.8,13.6,17.1h57.1C1160.6,1101.9,1088.1,1008.1,1086.4,1006.4 M1283.4,1101.9h48.6V858.8h-48.6V1101.9z
	 M1615.1,1026.8c-4.3,8.5-15.4,8.5-19.6,0.9l-83.6-168.9h-55.4l119.4,243.1h56.3l119.4-243.1h-53.7L1615.1,1026.8z M1874.4,1101.9
	h48.6l0.9-243.1h-48.6L1874.4,1101.9z M2217.3,858.8h-52.9L2045,1101.9h55.4l17.9-34.1c6-11.1,12.8-15.4,24.7-15.4h87.8
	c-3.4-7.7-8.5-17.9-14.5-29.9c-5.1-10.2-14.5-11.9-20.5-11.9h-31.6c-6,0-8.5-2.6-10.2-4.3c-1.7-2.6-2.6-6,0.9-12.8
	c2.6-6,25.6-52,27.3-54.6c4.3-9.4,16.2-8.5,20.5,0l31.6,64l32.4,66.5l16.2,33.3h54.6L2217.3,858.8z M2712.8,859.7h-50.3v145
	c0,10.2-11.9,14.5-18.8,6.8l-122.8-151h-64v243.1h49.5V950.9c0-2.6,0.9-4.3,2.6-6c3.4-4.3,9.4-5.1,14.5-1.7c2.6,1.7,5.1,5.1,7.7,8.5
	l123.7,152.7h58L2712.8,859.7z"/>
</svg>
